<svg width="51" height="51" viewBox="0 0 51 51" fill="none" xmlns="http://www.w3.org/2000/svg">
<circle cx="25.5" cy="25.5" r="25.5" fill="#FFD677"/>
<path d="M25.5 26.7061C23.9006 26.7061 22.3668 26.0708 21.2359 24.9399C20.1049 23.8089 19.4696 22.2751 19.4696 20.6757H21.8818C21.8818 21.6353 22.263 22.5557 22.9415 23.2342C23.6201 23.9128 24.5404 24.294 25.5 24.294C26.4596 24.294 27.3799 23.9128 28.0585 23.2342C28.737 22.5557 29.1182 21.6353 29.1182 20.6757H31.5304C31.5304 22.2751 30.8951 23.8089 29.7641 24.9399C28.6332 26.0708 27.0994 26.7061 25.5 26.7061ZM25.5 14.6453C26.4596 14.6453 27.3799 15.0265 28.0585 15.7051C28.737 16.3836 29.1182 17.3039 29.1182 18.2636H21.8818C21.8818 17.3039 22.263 16.3836 22.9415 15.7051C23.6201 15.0265 24.5404 14.6453 25.5 14.6453ZM33.9426 18.2636H31.5304C31.5304 17.4716 31.3744 16.6875 31.0714 15.9558C30.7683 15.2242 30.3241 14.5594 29.7641 13.9994C29.2042 13.4394 28.5394 12.9952 27.8077 12.6922C27.0761 12.3891 26.2919 12.2332 25.5 12.2332C23.9006 12.2332 22.3668 12.8685 21.2359 13.9994C20.1049 15.1303 19.4696 16.6642 19.4696 18.2636H17.0574C15.7187 18.2636 14.6453 19.337 14.6453 20.6757V35.1487C14.6453 35.7884 14.8994 36.402 15.3518 36.8543C15.8041 37.3067 16.4177 37.5609 17.0574 37.5609H33.9426C34.5823 37.5609 35.1958 37.3067 35.6482 36.8543C36.1006 36.402 36.3547 35.7884 36.3547 35.1487V20.6757C36.3547 20.036 36.1006 19.4224 35.6482 18.9701C35.1958 18.5177 34.5823 18.2636 33.9426 18.2636Z" fill="white"/>
</svg>
