<svg width="51" height="51" viewBox="0 0 51 51" fill="none" xmlns="http://www.w3.org/2000/svg">
<path d="M44.625 24.4375V34C44.625 34.5636 44.4011 35.1041 44.0026 35.5026C43.6041 35.9011 43.0636 36.125 42.5 36.125H39.3125M44.625 24.4375H29.75M44.625 24.4375L40.936 16.1373C40.7691 15.7615 40.4967 15.4423 40.152 15.2182C39.8072 14.9942 39.4049 14.8749 38.9938 14.875H29.75M39.3125 36.125C39.3125 37.2522 38.8647 38.3332 38.0677 39.1302C37.2707 39.9272 36.1897 40.375 35.0625 40.375C33.9353 40.375 32.8543 39.9272 32.0573 39.1302C31.2603 38.3332 30.8125 37.2522 30.8125 36.125M39.3125 36.125C39.3125 34.9978 38.8647 33.9168 38.0677 33.1198C37.2707 32.3228 36.1897 31.875 35.0625 31.875C33.9353 31.875 32.8543 32.3228 32.0573 33.1198C31.2603 33.9168 30.8125 34.9978 30.8125 36.125M29.75 24.4375V36.125M29.75 24.4375V14.875M29.75 14.875V12.75C29.75 12.1864 29.5261 11.6459 29.1276 11.2474C28.7291 10.8489 28.1886 10.625 27.625 10.625H8.5C7.93641 10.625 7.39591 10.8489 6.9974 11.2474C6.59888 11.6459 6.375 12.1864 6.375 12.75V34C6.375 34.5636 6.59888 35.1041 6.9974 35.5026C7.39591 35.9011 7.93641 36.125 8.5 36.125H11.6875M11.6875 36.125C11.6875 37.2522 12.1353 38.3332 12.9323 39.1302C13.7293 39.9272 14.8103 40.375 15.9375 40.375C17.0647 40.375 18.1457 39.9272 18.9427 39.1302C19.7397 38.3332 20.1875 37.2522 20.1875 36.125M11.6875 36.125C11.6875 34.9978 12.1353 33.9168 12.9323 33.1198C13.7293 32.3228 14.8103 31.875 15.9375 31.875C17.0647 31.875 18.1457 32.3228 18.9427 33.1198C19.7397 33.9168 20.1875 34.9978 20.1875 36.125M20.1875 36.125H29.75M29.75 36.125H30.8125" stroke="black" stroke-width="3.66667" stroke-linecap="round" stroke-linejoin="round"/>
</svg>
