<svg width="47" height="47" viewBox="0 0 47 47" fill="none" xmlns="http://www.w3.org/2000/svg">
<path d="M35.25 35.25L29.375 29.375M17.625 17.625L11.75 11.75M29.375 17.625L35.25 11.75M11.75 35.25L17.625 29.375M41.125 23.5C41.125 25.8145 40.6691 28.1064 39.7834 30.2448C38.8976 32.3832 37.5994 34.3261 35.9628 35.9628C34.3261 37.5994 32.3832 38.8976 30.2448 39.7834C28.1064 40.6691 25.8145 41.125 23.5 41.125C21.1855 41.125 18.8936 40.6691 16.7552 39.7834C14.6168 38.8976 12.6739 37.5994 11.0372 35.9628C9.40061 34.3261 8.10236 32.3832 7.21662 30.2448C6.33088 28.1064 5.875 25.8145 5.875 23.5C5.875 18.8256 7.73191 14.3426 11.0372 11.0372C14.3426 7.73191 18.8256 5.875 23.5 5.875C28.1744 5.875 32.6574 7.73191 35.9628 11.0372C39.2681 14.3426 41.125 18.8256 41.125 23.5ZM31.3333 23.5C31.3333 25.5775 30.508 27.57 29.039 29.039C27.57 30.508 25.5775 31.3333 23.5 31.3333C21.4225 31.3333 19.43 30.508 17.961 29.039C16.492 27.57 15.6667 25.5775 15.6667 23.5C15.6667 21.4225 16.492 19.43 17.961 17.961C19.43 16.492 21.4225 15.6667 23.5 15.6667C25.5775 15.6667 27.57 16.492 29.039 17.961C30.508 19.43 31.3333 21.4225 31.3333 23.5Z" stroke="black" stroke-width="3.91667"/>
</svg>
