<svg width="19" height="19" viewBox="0 0 19 19" fill="none" xmlns="http://www.w3.org/2000/svg">
<path d="M6.26258 1.79175H12.7376C15.2042 1.79175 17.2084 3.79591 17.2084 6.26258V12.7376C17.2084 13.9233 16.7374 15.0605 15.8989 15.8989C15.0605 16.7374 13.9233 17.2084 12.7376 17.2084H6.26258C3.79591 17.2084 1.79175 15.2042 1.79175 12.7376V6.26258C1.79175 5.07684 2.26278 3.93967 3.10122 3.10122C3.93967 2.26278 5.07684 1.79175 6.26258 1.79175ZM6.10841 3.33341C5.37244 3.33341 4.66661 3.62578 4.14619 4.14619C3.62578 4.66661 3.33341 5.37244 3.33341 6.10841V12.8917C3.33341 14.4257 4.57446 15.6667 6.10841 15.6667H12.8917C13.6277 15.6667 14.3336 15.3744 14.854 14.854C15.3744 14.3336 15.6667 13.6277 15.6667 12.8917V6.10841C15.6667 4.57446 14.4257 3.33341 12.8917 3.33341H6.10841ZM13.547 4.48966C13.8025 4.48966 14.0476 4.59118 14.2283 4.77188C14.409 4.95258 14.5105 5.19766 14.5105 5.45321C14.5105 5.70875 14.409 5.95383 14.2283 6.13453C14.0476 6.31523 13.8025 6.41675 13.547 6.41675C13.2914 6.41675 13.0463 6.31523 12.8656 6.13453C12.6849 5.95383 12.5834 5.70875 12.5834 5.45321C12.5834 5.19766 12.6849 4.95258 12.8656 4.77188C13.0463 4.59118 13.2914 4.48966 13.547 4.48966ZM9.50008 5.64591C10.5223 5.64591 11.5026 6.05198 12.2254 6.77477C12.9482 7.49757 13.3542 8.47789 13.3542 9.50008C13.3542 10.5223 12.9482 11.5026 12.2254 12.2254C11.5026 12.9482 10.5223 13.3542 9.50008 13.3542C8.47789 13.3542 7.49757 12.9482 6.77477 12.2254C6.05198 11.5026 5.64591 10.5223 5.64591 9.50008C5.64591 8.47789 6.05198 7.49757 6.77477 6.77477C7.49757 6.05198 8.47789 5.64591 9.50008 5.64591ZM9.50008 7.18758C8.88677 7.18758 8.29857 7.43122 7.8649 7.8649C7.43122 8.29857 7.18758 8.88677 7.18758 9.50008C7.18758 10.1134 7.43122 10.7016 7.8649 11.1353C8.29857 11.5689 8.88677 11.8126 9.50008 11.8126C10.1134 11.8126 10.7016 11.5689 11.1353 11.1353C11.5689 10.7016 11.8126 10.1134 11.8126 9.50008C11.8126 8.88677 11.5689 8.29857 11.1353 7.8649C10.7016 7.43122 10.1134 7.18758 9.50008 7.18758Z" fill="black"/>
</svg>
