<svg width="20" height="20" viewBox="0 0 20 20" fill="none" xmlns="http://www.w3.org/2000/svg">
<path d="M10.0004 0.833496C14.3725 0.833672 17.9164 4.37834 17.9164 8.75049C17.9162 13.3053 13.0897 17.0979 10.974 18.5415C10.3824 18.9452 9.61737 18.9452 9.02576 18.5415C6.91002 17.0978 2.0836 13.3051 2.08337 8.75049C2.08337 4.37823 5.62811 0.833496 10.0004 0.833496ZM10.0004 6.25049C8.61965 6.25049 7.50037 7.36978 7.50037 8.75049C7.50054 10.1311 8.61976 11.2505 10.0004 11.2505C11.3808 11.2503 12.5002 10.1309 12.5004 8.75049C12.5004 7.36988 11.3809 6.25066 10.0004 6.25049Z" fill="#898989"/>
</svg>
