<svg width="46" height="46" viewBox="0 0 46 46" fill="none" xmlns="http://www.w3.org/2000/svg">
<path d="M38.3333 18.2083C39.0958 18.2083 39.8271 18.5112 40.3663 19.0504C40.9054 19.5895 41.2083 20.3208 41.2083 21.0833C41.2083 25.4041 39.4919 29.548 36.4366 32.6033C33.3813 35.6585 29.2375 37.375 24.9167 37.375H20.3512C20.8478 37.9334 21.1074 38.6633 21.0751 39.4099C21.0427 40.1566 20.7209 40.8613 20.1778 41.3747C19.6348 41.8881 18.9132 42.1698 18.1659 42.1602C17.4186 42.1507 16.7045 41.8505 16.1747 41.3233L11.3946 36.5431C10.8555 36.0098 10.5489 35.2851 10.5417 34.5268V34.4731C10.5474 33.7621 10.8138 33.1123 11.247 32.614L11.3831 32.4664L16.1747 27.6747C16.6986 27.1206 17.4211 26.7973 18.1833 26.776C18.9455 26.7546 19.685 27.0368 20.239 27.5607C20.7931 28.0845 21.1164 28.807 21.1378 29.5692C21.1592 30.3314 20.8769 31.0709 20.3531 31.625H24.9167C27.7125 31.625 30.3938 30.5143 32.3708 28.5374C34.3477 26.5604 35.4583 23.8791 35.4583 21.0833C35.4583 20.3208 35.7612 19.5895 36.3004 19.0504C36.8396 18.5112 37.5708 18.2083 38.3333 18.2083ZM29.8233 4.67664L34.615 9.46831C35.1534 10.0074 35.4558 10.7381 35.4558 11.5C35.4558 12.2619 35.1534 12.9926 34.615 13.5316L29.8233 18.3233C29.2923 18.8441 28.5801 19.1388 27.8363 19.1455C27.0926 19.1522 26.3751 18.8705 25.8348 18.3594C25.2944 17.8483 24.9731 17.1476 24.9385 16.4047C24.9038 15.6617 25.1584 14.9342 25.6488 14.375H21.0833C18.2875 14.375 15.6062 15.4856 13.6292 17.4626C11.6523 19.4395 10.5417 22.1208 10.5417 24.9166C10.5417 25.6791 10.2388 26.4104 9.6996 26.9496C9.16043 27.4887 8.42916 27.7916 7.66666 27.7916C6.90417 27.7916 6.1729 27.4887 5.63373 26.9496C5.09457 26.4104 4.79166 25.6791 4.79166 24.9166C4.79166 20.5958 6.5081 16.452 9.56338 13.3967C12.6187 10.3414 16.7625 8.62498 21.0833 8.62498H25.6488C25.1522 8.06652 24.8926 7.33664 24.9249 6.59001C24.9573 5.84339 25.2791 5.1387 25.8221 4.6253C26.3652 4.1119 27.0868 3.83013 27.8341 3.83971C28.5814 3.8493 29.2936 4.14948 29.8233 4.67664Z" fill="black"/>
</svg>
