<svg width="45" height="45" viewBox="0 0 45 45" fill="none" xmlns="http://www.w3.org/2000/svg">
<path d="M37.6158 35.0578C39.6353 32.628 41.0399 29.7474 41.7108 26.6599C42.3816 23.5724 42.299 20.3688 41.4699 17.32C40.6407 14.2711 39.0895 11.4669 36.9473 9.14439C34.8052 6.8219 32.1352 5.0495 29.1632 3.97713C26.1912 2.90477 23.0046 2.56399 19.8731 2.98361C16.7415 3.40324 13.7571 4.57093 11.1723 6.3879C8.58742 8.20487 6.47823 10.6177 5.02311 13.4222C3.56798 16.2267 2.80973 19.3405 2.8125 22.5C2.81368 27.0931 4.43225 31.539 7.38422 35.0578L7.35609 35.0817C7.45453 35.1998 7.56703 35.3011 7.66828 35.4178C7.79484 35.5627 7.93125 35.6991 8.06203 35.8397C8.45391 36.2681 8.86172 36.6759 9.28547 37.0631C9.41672 37.1794 9.54797 37.2928 9.67922 37.4034C10.1292 37.7925 10.5933 38.1591 11.0714 38.5031C11.1333 38.5453 11.1895 38.6002 11.2514 38.6438V38.6269C14.5449 40.9448 18.474 42.1888 22.5014 42.1888C26.5288 42.1888 30.4579 40.9448 33.7514 38.6269V38.6438C33.8133 38.6002 33.8681 38.5453 33.9314 38.5031C34.4095 38.1581 34.8736 37.7916 35.3236 37.4034C35.4548 37.2919 35.5861 37.1784 35.7173 37.0631C36.1402 36.6759 36.548 36.2681 36.9408 35.8397C37.0716 35.6991 37.2066 35.5627 37.3345 35.4178C37.4344 35.3011 37.5483 35.1998 37.6467 35.0803L37.6158 35.0578ZM22.5 11.25C23.7516 11.25 24.9751 11.6211 26.0157 12.3165C27.0564 13.0118 27.8675 14.0001 28.3464 15.1565C28.8254 16.3128 28.9507 17.5851 28.7065 18.8127C28.4624 20.0402 27.8597 21.1678 26.9747 22.0528C26.0897 22.9378 24.9621 23.5405 23.7346 23.7847C22.507 24.0288 21.2346 23.9035 20.0783 23.4246C18.922 22.9456 17.9337 22.1345 17.2384 21.0938C16.543 20.0532 16.1719 18.8297 16.1719 17.5781C16.1719 15.8998 16.8386 14.2902 18.0253 13.1035C19.2121 11.9167 20.8217 11.25 22.5 11.25ZM11.2598 35.0578C11.2842 33.2114 12.0346 31.4488 13.3486 30.1513C14.6626 28.8539 16.4346 28.1259 18.2812 28.125H26.7188C28.5654 28.1259 30.3374 28.8539 31.6514 30.1513C32.9654 31.4488 33.7158 33.2114 33.7402 35.0578C30.656 37.837 26.6516 39.3751 22.5 39.3751C18.3484 39.3751 14.344 37.837 11.2598 35.0578Z" fill="black"/>
</svg>
