<svg width="28" height="27" viewBox="0 0 28 27" fill="none" xmlns="http://www.w3.org/2000/svg">
<path d="M11.1272 16.8594C9.35752 16.8594 7.85755 16.2447 6.62732 15.0152C5.39783 13.7864 4.78308 12.2868 4.78308 10.5164C4.78308 8.74593 5.39783 7.24597 6.62732 6.01647C7.85681 4.78698 9.35678 4.1726 11.1272 4.17334C12.8977 4.17408 14.3973 4.78883 15.626 6.01758C16.8548 7.24634 17.4695 8.74593 17.4703 10.5164C17.4703 11.2854 17.3341 12.0296 17.0618 12.7492C16.7895 13.4687 16.4315 14.0842 15.988 14.5956L22.5292 21.1346C22.6325 21.2379 22.6879 21.3652 22.6952 21.5165C22.7019 21.6663 22.6465 21.8003 22.5292 21.9183C22.4111 22.0364 22.2805 22.0955 22.1373 22.0955C21.9941 22.0955 21.8635 22.0364 21.7454 21.9183L15.2054 15.3783C14.6519 15.8498 14.0154 16.2148 13.2958 16.4731C12.5763 16.7314 11.853 16.8605 11.1261 16.8605M11.1261 15.7535C12.5947 15.7535 13.8349 15.248 14.8467 14.237C15.8577 13.2259 16.3633 11.9857 16.3633 10.5164C16.3633 9.04703 15.8581 7.80721 14.8478 6.7969C13.8375 5.78659 12.5977 5.28107 11.1283 5.28033C9.65899 5.28033 8.41879 5.78585 7.40775 6.7969C6.3967 7.80795 5.89081 9.04777 5.89007 10.5164C5.88933 11.985 6.39485 13.2248 7.40664 14.2359C8.41843 15.2469 9.65825 15.7524 11.1261 15.7524" fill="#8F8F8F"/>
</svg>
