<svg width="43" height="43" viewBox="0 0 43 43" fill="none" xmlns="http://www.w3.org/2000/svg">
<path d="M21.5 23.2917C19.1241 23.2917 16.8455 22.3478 15.1655 20.6678C13.4855 18.9878 12.5417 16.7092 12.5417 14.3333H16.125C16.125 15.7589 16.6913 17.126 17.6993 18.134C18.7073 19.142 20.0745 19.7083 21.5 19.7083C22.9255 19.7083 24.2927 19.142 25.3007 18.134C26.3087 17.126 26.875 15.7589 26.875 14.3333H30.4583C30.4583 16.7092 29.5145 18.9878 27.8345 20.6678C26.1545 22.3478 23.8759 23.2917 21.5 23.2917ZM21.5 5.375C22.9255 5.375 24.2927 5.94129 25.3007 6.9493C26.3087 7.95731 26.875 9.32446 26.875 10.75H16.125C16.125 9.32446 16.6913 7.95731 17.6993 6.9493C18.7073 5.94129 20.0745 5.375 21.5 5.375ZM34.0417 10.75H30.4583C30.4583 9.57357 30.2266 8.40867 29.7764 7.32179C29.3262 6.23492 28.6664 5.24736 27.8345 4.4155C27.0026 3.58364 26.0151 2.92378 24.9282 2.47358C23.8413 2.02338 22.6764 1.79166 21.5 1.79166C19.1241 1.79166 16.8455 2.73549 15.1655 4.4155C13.4855 6.09551 12.5417 8.3741 12.5417 10.75H8.95833C6.96958 10.75 5.375 12.3446 5.375 14.3333V35.8333C5.375 36.7837 5.75253 37.6951 6.42453 38.3671C7.09654 39.0391 8.00797 39.4167 8.95833 39.4167H34.0417C34.992 39.4167 35.9035 39.0391 36.5755 38.3671C37.2475 37.6951 37.625 36.7837 37.625 35.8333V14.3333C37.625 13.383 37.2475 12.4715 36.5755 11.7995C35.9035 11.1275 34.992 10.75 34.0417 10.75Z" fill="black"/>
</svg>
