<svg width="29" height="29" viewBox="0 0 29 29" fill="none" xmlns="http://www.w3.org/2000/svg">
<path d="M14.5 15.7061C12.9006 15.7061 11.3668 15.0708 10.2359 13.9399C9.10493 12.8089 8.46959 11.2751 8.46959 9.67572H10.8818C10.8818 10.6353 11.263 11.5557 11.9415 12.2342C12.6201 12.9128 13.5404 13.294 14.5 13.294C15.4596 13.294 16.3799 12.9128 17.0585 12.2342C17.737 11.5557 18.1182 10.6353 18.1182 9.67572H20.5304C20.5304 11.2751 19.8951 12.8089 18.7641 13.9399C17.6332 15.0708 16.0994 15.7061 14.5 15.7061ZM14.5 3.64532C15.4596 3.64532 16.3799 4.02652 17.0585 4.70508C17.737 5.38363 18.1182 6.30394 18.1182 7.26356H10.8818C10.8818 6.30394 11.263 5.38363 11.9415 4.70508C12.6201 4.02652 13.5404 3.64532 14.5 3.64532ZM22.9426 7.26356H20.5304C20.5304 6.47164 20.3744 5.68747 20.0714 4.95582C19.7683 4.22418 19.3241 3.55939 18.7641 2.99942C18.2042 2.43944 17.5394 1.99525 16.8077 1.69219C16.0761 1.38914 15.2919 1.23315 14.5 1.23315C12.9006 1.23315 11.3668 1.8685 10.2359 2.99942C9.10493 4.13034 8.46959 5.6642 8.46959 7.26356H6.05743C4.71868 7.26356 3.64526 8.33697 3.64526 9.67572V24.1487C3.64526 24.7884 3.8994 25.402 4.35177 25.8543C4.80414 26.3067 5.41768 26.5609 6.05743 26.5609H22.9426C23.5823 26.5609 24.1958 26.3067 24.6482 25.8543C25.1006 25.402 25.3547 24.7884 25.3547 24.1487V9.67572C25.3547 9.03598 25.1006 8.42243 24.6482 7.97007C24.1958 7.5177 23.5823 7.26356 22.9426 7.26356Z" fill="white"/>
</svg>
