<svg width="121" height="24" viewBox="0 0 121 24" fill="none" xmlns="http://www.w3.org/2000/svg">
<path d="M12 0L14.6942 8.2918H23.4127L16.3593 13.4164L19.0534 21.7082L12 16.5836L4.94658 21.7082L7.64074 13.4164L0.587322 8.2918H9.30583L12 0Z" fill="#F8AA7C"/>
<path d="M37 0L39.6942 8.2918H48.4127L41.3593 13.4164L44.0534 21.7082L37 16.5836L29.9466 21.7082L32.6407 13.4164L25.5873 8.2918H34.3058L37 0Z" fill="#F8AA7C"/>
<path d="M61 0L63.6942 8.2918H72.4127L65.3593 13.4164L68.0534 21.7082L61 16.5836L53.9466 21.7082L56.6407 13.4164L49.5873 8.2918H58.3058L61 0Z" fill="#F8AA7C"/>
<path d="M85 0L87.6942 8.2918H96.4127L89.3593 13.4164L92.0534 21.7082L85 16.5836L77.9466 21.7082L80.6407 13.4164L73.5873 8.2918H82.3058L85 0Z" fill="#F8AA7C"/>
<path d="M109 0L111.694 8.2918H120.413L113.359 13.4164L116.053 21.7082L109 16.5836L101.947 21.7082L104.641 13.4164L97.5873 8.2918H106.306L109 0Z" fill="#F8AA7C"/>
</svg>
